<?xml version="1.0" encoding="UTF-8" standalone="no"?>
<!DOCTYPE svg PUBLIC "-//W3C//DTD SVG 1.1//EN"
 "http://www.w3.org/Graphics/SVG/1.1/DTD/svg11.dtd">
<!-- Generated by graphviz version 2.40.1 (20161225.0304)
 -->
<!-- Title: dependencies Pages: 1 -->
<svg width="3789pt" height="439pt"
 viewBox="0.00 0.00 3789.00 439.00" xmlns="http://www.w3.org/2000/svg" xmlns:xlink="http://www.w3.org/1999/xlink">
<g id="graph0" class="graph" transform="scale(1 1) rotate(0) translate(4 435)">
<title>dependencies</title>
<polygon fill="#ffffff" stroke="transparent" points="-4,4 -4,-435 3785,-435 3785,4 -4,4"/>
<text text-anchor="start" x="1869.5091" y="-42.4" font-family="sans-serif" font-weight="bold" font-size="14.00" fill="#000000">Legend</text>
<polygon fill="#ffffb3" stroke="transparent" points="1656.5,-10 1656.5,-30 1676.5,-30 1676.5,-10 1656.5,-10"/>
<text text-anchor="start" x="1680.129" y="-15.4" font-family="sans-serif" font-size="14.00" fill="#000000"> &#160;Declarations</text>
<polygon fill="#8dd3c7" stroke="transparent" points="1769.5,-10 1769.5,-30 1789.5,-30 1789.5,-10 1769.5,-10"/>
<text text-anchor="start" x="1793.2251" y="-15.4" font-family="sans-serif" font-size="14.00" fill="#000000"> &#160;Module</text>
<polygon fill="#80b1d3" stroke="transparent" points="1855.5,-10 1855.5,-30 1875.5,-30 1875.5,-10 1855.5,-10"/>
<text text-anchor="start" x="1879.2812" y="-15.4" font-family="sans-serif" font-size="14.00" fill="#000000"> &#160;Bootstrap</text>
<polygon fill="#fdb462" stroke="transparent" points="1952.5,-10 1952.5,-30 1972.5,-30 1972.5,-10 1952.5,-10"/>
<text text-anchor="start" x="1976.1732" y="-15.4" font-family="sans-serif" font-size="14.00" fill="#000000"> &#160;Providers</text>
<polygon fill="#fb8072" stroke="transparent" points="2048.5,-10 2048.5,-30 2068.5,-30 2068.5,-10 2048.5,-10"/>
<text text-anchor="start" x="2072.2258" y="-15.4" font-family="sans-serif" font-size="14.00" fill="#000000"> &#160;Exports</text>
<g id="clust1" class="cluster">
<title>cluster_MainModule</title>
<polygon fill="none" stroke="#000000" stroke-dasharray="1,5" points="1128,-138 1128,-423 2507,-423 2507,-138 1128,-138"/>
</g>
<g id="clust2" class="cluster">
<title>cluster_MainModule_declarations</title>
<polygon fill="none" stroke="#000000" points="2373,-222 2373,-274 2499,-274 2499,-222 2373,-222"/>
</g>
<g id="clust4" class="cluster">
<title>cluster_MainModule_imports</title>
<polygon fill="none" stroke="#000000" points="1136,-146 1136,-274 2365,-274 2365,-146 1136,-146"/>
</g>
<g id="clust6" class="cluster">
<title>cluster_MainModule_bootstrap</title>
<polygon fill="none" stroke="#000000" points="1361,-363 1361,-415 1491,-415 1491,-363 1361,-363"/>
</g>
<g id="clust8" class="cluster">
<title>cluster_MaterialModule</title>
<polygon fill="none" stroke="#000000" stroke-dasharray="1,5" points="2515,-214 2515,-282 3773,-282 3773,-214 2515,-214"/>
</g>
<g id="clust10" class="cluster">
<title>cluster_MaterialModule_imports</title>
<polygon fill="none" stroke="#000000" points="3155,-222 3155,-274 3765,-274 3765,-222 3155,-222"/>
</g>
<g id="clust11" class="cluster">
<title>cluster_MaterialModule_exports</title>
<polygon fill="none" stroke="#000000" points="2523,-222 2523,-274 3147,-274 3147,-222 2523,-222"/>
</g>
<g id="clust14" class="cluster">
<title>cluster_NewsModule</title>
<polygon fill="none" stroke="#000000" stroke-dasharray="1,5" points="48,-70 48,-206 1072,-206 1072,-70 48,-70"/>
</g>
<g id="clust15" class="cluster">
<title>cluster_NewsModule_declarations</title>
<polygon fill="none" stroke="#000000" points="56,-146 56,-198 906,-198 906,-146 56,-146"/>
</g>
<g id="clust17" class="cluster">
<title>cluster_NewsModule_NewsListComponent_providers</title>
<polygon fill="none" stroke="#000000" points="56,-78 56,-130 224,-130 224,-78 56,-78"/>
</g>
<g id="clust21" class="cluster">
<title>cluster_NewsModule_imports</title>
<polygon fill="none" stroke="#000000" points="718,-78 718,-130 982,-130 982,-78 718,-78"/>
</g>
<g id="clust22" class="cluster">
<title>cluster_NewsModule_exports</title>
<polygon fill="none" stroke="#000000" points="232,-78 232,-130 710,-130 710,-78 232,-78"/>
</g>
<g id="clust24" class="cluster">
<title>cluster_NewsModule_providers</title>
<polygon fill="none" stroke="#000000" points="990,-78 990,-130 1064,-130 1064,-78 990,-78"/>
</g>
<g id="clust25" class="cluster">
<title>cluster_AppServerModule</title>
<polygon fill="none" stroke="#000000" stroke-dasharray="1,5" points="8,-290 8,-415 1120,-415 1120,-290 8,-290"/>
</g>
<g id="clust27" class="cluster">
<title>cluster_AppServerModule_imports</title>
<polygon fill="none" stroke="#000000" points="578,-298 578,-350 1112,-350 1112,-298 578,-298"/>
</g>
<g id="clust30" class="cluster">
<title>cluster_AppServerModule_providers</title>
<polygon fill="none" stroke="#000000" points="16,-298 16,-350 570,-350 570,-298 16,-298"/>
</g>
<!-- MainComponent -->
<g id="node1" class="node">
<title>MainComponent</title>
<polygon fill="#ffffb3" stroke="#000000" points="2491.3823,-266 2380.6177,-266 2380.6177,-230 2491.3823,-230 2491.3823,-266"/>
<text text-anchor="middle" x="2436" y="-243.8" font-family="Times,serif" font-size="14.00" fill="#000000">MainComponent</text>
</g>
<!-- MainModule -->
<g id="node2" class="node">
<title>MainModule</title>
<polygon fill="#8dd3c7" stroke="#000000" points="1625.5997,-342 1622.5997,-346 1601.5997,-346 1598.5997,-342 1536.4003,-342 1536.4003,-306 1625.5997,-306 1625.5997,-342"/>
<text text-anchor="middle" x="1581" y="-319.8" font-family="Times,serif" font-size="14.00" fill="#000000">MainModule</text>
</g>
<!-- MainComponent&#45;&gt;MainModule -->
<g id="edge1" class="edge">
<title>MainComponent&#45;&gt;MainModule</title>
<path fill="none" stroke="#000000" d="M2380.5449,-248C2195.4247,-248 1610.3533,-248 1610.3533,-248 1610.3533,-248 1610.3533,-295.9891 1610.3533,-295.9891"/>
<polygon fill="#000000" stroke="#000000" points="1606.8534,-295.989 1610.3533,-305.9891 1613.8534,-295.9891 1606.8534,-295.989"/>
</g>
<!-- MainComponent  -->
<g id="node10" class="node">
<title>MainComponent </title>
<polygon fill="#80b1d3" stroke="#000000" points="1483.3828,-407 1368.6172,-407 1368.6172,-371 1483.3828,-371 1483.3828,-407"/>
<text text-anchor="middle" x="1426" y="-384.8" font-family="Times,serif" font-size="14.00" fill="#000000">MainComponent </text>
</g>
<!-- MainModule&#45;&gt;MainComponent  -->
<g id="edge9" class="edge">
<title>MainModule&#45;&gt;MainComponent </title>
<path fill="none" stroke="#000000" stroke-dasharray="1,5" d="M1581,-342.1061C1581,-361.3391 1581,-389 1581,-389 1581,-389 1493.2759,-389 1493.2759,-389"/>
<polygon fill="#000000" stroke="#000000" points="1493.2759,-385.5001 1483.2759,-389 1493.2759,-392.5001 1493.2759,-385.5001"/>
</g>
<!-- AppServerModule -->
<g id="node34" class="node">
<title>AppServerModule</title>
<polygon fill="#8dd3c7" stroke="#000000" points="990.1895,-407 987.1895,-411 966.1895,-411 963.1895,-407 869.8105,-407 869.8105,-371 990.1895,-371 990.1895,-407"/>
<text text-anchor="middle" x="930" y="-384.8" font-family="Times,serif" font-size="14.00" fill="#000000">AppServerModule</text>
</g>
<!-- MainModule&#45;&gt;AppServerModule -->
<g id="edge32" class="edge">
<title>MainModule&#45;&gt;AppServerModule</title>
<path fill="none" stroke="#000000" d="M1536.2125,-330C1470.1468,-330 1354.3057,-330 1354.3057,-330 1354.3057,-330 1354.3057,-383 1354.3057,-383 1354.3057,-383 1000.3421,-383 1000.3421,-383"/>
<polygon fill="#000000" stroke="#000000" points="1000.3421,-379.5001 990.3421,-383 1000.342,-386.5001 1000.3421,-379.5001"/>
</g>
<!-- BrowserModule.withServerTransition(args) -->
<g id="node3" class="node">
<title>BrowserModule.withServerTransition(args)</title>
<polygon fill="#8dd3c7" stroke="#000000" points="1842.0794,-190 1839.0794,-194 1818.0794,-194 1815.0794,-190 1579.9206,-190 1579.9206,-154 1842.0794,-154 1842.0794,-190"/>
<text text-anchor="middle" x="1711" y="-167.8" font-family="Times,serif" font-size="14.00" fill="#000000">BrowserModule.withServerTransition(args)</text>
</g>
<!-- BrowserModule.withServerTransition(args)&#45;&gt;MainModule -->
<g id="edge2" class="edge">
<title>BrowserModule.withServerTransition(args)&#45;&gt;MainModule</title>
<path fill="none" stroke="#000000" d="M1595.1568,-190.0333C1595.1568,-190.0333 1595.1568,-295.9902 1595.1568,-295.9902"/>
<polygon fill="#000000" stroke="#000000" points="1591.6569,-295.9901 1595.1568,-305.9902 1598.6569,-295.9902 1591.6569,-295.9901"/>
</g>
<!-- BrowserTransferStateModule -->
<g id="node4" class="node">
<title>BrowserTransferStateModule</title>
<polygon fill="#8dd3c7" stroke="#000000" points="2042.375,-190 2039.375,-194 2018.375,-194 2015.375,-190 1859.625,-190 1859.625,-154 2042.375,-154 2042.375,-190"/>
<text text-anchor="middle" x="1951" y="-167.8" font-family="Times,serif" font-size="14.00" fill="#000000">BrowserTransferStateModule</text>
</g>
<!-- BrowserTransferStateModule&#45;&gt;MainModule -->
<g id="edge3" class="edge">
<title>BrowserTransferStateModule&#45;&gt;MainModule</title>
<path fill="none" stroke="#000000" d="M1951,-190.111C1951,-228.5903 1951,-315 1951,-315 1951,-315 1635.6306,-315 1635.6306,-315"/>
<polygon fill="#000000" stroke="#000000" points="1635.6307,-311.5001 1625.6306,-315 1635.6306,-318.5001 1635.6307,-311.5001"/>
</g>
<!-- NewsModule -->
<g id="node5" class="node">
<title>NewsModule</title>
<polygon fill="#8dd3c7" stroke="#000000" points="1235.9232,-266 1232.9232,-270 1211.9232,-270 1208.9232,-266 1144.0768,-266 1144.0768,-230 1235.9232,-230 1235.9232,-266"/>
<text text-anchor="middle" x="1190" y="-243.8" font-family="Times,serif" font-size="14.00" fill="#000000">NewsModule</text>
</g>
<!-- NewsModule&#45;&gt;MainModule -->
<g id="edge4" class="edge">
<title>NewsModule&#45;&gt;MainModule</title>
<path fill="none" stroke="#000000" d="M1236.0503,-257C1332.1135,-257 1545.0326,-257 1545.0326,-257 1545.0326,-257 1545.0326,-295.692 1545.0326,-295.692"/>
<polygon fill="#000000" stroke="#000000" points="1541.5327,-295.6919 1545.0326,-305.692 1548.5327,-295.692 1541.5327,-295.6919"/>
</g>
<!-- MainNewsComponent  -->
<g id="node27" class="node">
<title>MainNewsComponent </title>
<polygon fill="#fb8072" stroke="#000000" points="386.2548,-122 239.7452,-122 239.7452,-86 386.2548,-86 386.2548,-122"/>
<text text-anchor="middle" x="313" y="-99.8" font-family="Times,serif" font-size="14.00" fill="#000000">MainNewsComponent </text>
</g>
<!-- NewsModule&#45;&gt;MainNewsComponent  -->
<g id="edge28" class="edge">
<title>NewsModule&#45;&gt;MainNewsComponent </title>
<path fill="none" stroke="#000000" stroke-dasharray="5,2" d="M1144.1087,-257C974.7961,-257 394.9428,-257 394.9428,-257 394.9428,-257 394.9428,-104 394.9428,-104 394.9428,-104 394.0659,-104 394.0659,-104"/>
<polygon fill="#000000" stroke="#000000" points="396.1736,-100.5001 386.1735,-104 396.1735,-107.5001 396.1736,-100.5001"/>
</g>
<!-- NewsListComponent  -->
<g id="node28" class="node">
<title>NewsListComponent </title>
<polygon fill="#fb8072" stroke="#000000" points="542.484,-122 403.516,-122 403.516,-86 542.484,-86 542.484,-122"/>
<text text-anchor="middle" x="473" y="-99.8" font-family="Times,serif" font-size="14.00" fill="#000000">NewsListComponent </text>
</g>
<!-- NewsModule&#45;&gt;NewsListComponent  -->
<g id="edge29" class="edge">
<title>NewsModule&#45;&gt;NewsListComponent </title>
<path fill="none" stroke="#000000" stroke-dasharray="5,2" d="M1144.0896,-251C997.716,-251 551.625,-251 551.625,-251 551.625,-251 551.625,-104 551.625,-104 551.625,-104 550.6922,-104 550.6922,-104"/>
<polygon fill="#000000" stroke="#000000" points="552.297,-100.5001 542.2969,-104 552.2969,-107.5001 552.297,-100.5001"/>
</g>
<!-- NewsItemComponent  -->
<g id="node29" class="node">
<title>NewsItemComponent </title>
<polygon fill="#fb8072" stroke="#000000" points="702.3617,-122 559.6383,-122 559.6383,-86 702.3617,-86 702.3617,-122"/>
<text text-anchor="middle" x="631" y="-99.8" font-family="Times,serif" font-size="14.00" fill="#000000">NewsItemComponent </text>
</g>
<!-- NewsModule&#45;&gt;NewsItemComponent  -->
<g id="edge30" class="edge">
<title>NewsModule&#45;&gt;NewsItemComponent </title>
<path fill="none" stroke="#000000" stroke-dasharray="5,2" d="M1144.0424,-245C1023.26,-245 706.129,-245 706.129,-245 706.129,-245 706.129,-110 706.129,-110 706.129,-110 705.7667,-110 705.7667,-110"/>
<polygon fill="#000000" stroke="#000000" points="712.5055,-106.5003 702.5054,-110 712.5053,-113.5003 712.5055,-106.5003"/>
</g>
<!-- BrowserAnimationsModule -->
<g id="node6" class="node">
<title>BrowserAnimationsModule</title>
<polygon fill="#8dd3c7" stroke="#000000" points="2232.3019,-190 2229.3019,-194 2208.3019,-194 2205.3019,-190 2059.6981,-190 2059.6981,-154 2232.3019,-154 2232.3019,-190"/>
<text text-anchor="middle" x="2146" y="-167.8" font-family="Times,serif" font-size="14.00" fill="#000000">BrowserAnimationsModule</text>
</g>
<!-- BrowserAnimationsModule&#45;&gt;MainModule -->
<g id="edge5" class="edge">
<title>BrowserAnimationsModule&#45;&gt;MainModule</title>
<path fill="none" stroke="#000000" d="M2146,-190.0333C2146,-230.2965 2146,-324 2146,-324 2146,-324 1635.8069,-324 1635.8069,-324"/>
<polygon fill="#000000" stroke="#000000" points="1635.8069,-320.5001 1625.8069,-324 1635.8068,-327.5001 1635.8069,-320.5001"/>
</g>
<!-- MaterialModule -->
<g id="node7" class="node">
<title>MaterialModule</title>
<polygon fill="#8dd3c7" stroke="#000000" points="2357.4706,-190 2354.4706,-194 2333.4706,-194 2330.4706,-190 2250.5294,-190 2250.5294,-154 2357.4706,-154 2357.4706,-190"/>
<text text-anchor="middle" x="2304" y="-167.8" font-family="Times,serif" font-size="14.00" fill="#000000">MaterialModule</text>
</g>
<!-- MaterialModule&#45;&gt;MainModule -->
<g id="edge6" class="edge">
<title>MaterialModule&#45;&gt;MainModule</title>
<path fill="none" stroke="#000000" d="M2321.8284,-190.1558C2321.8284,-232.2614 2321.8284,-333 2321.8284,-333 2321.8284,-333 1635.6738,-333 1635.6738,-333"/>
<polygon fill="#000000" stroke="#000000" points="1635.6738,-329.5001 1625.6738,-333 1635.6738,-336.5001 1635.6738,-329.5001"/>
</g>
<!-- MaterialModule&#45;&gt;NewsModule -->
<g id="edge27" class="edge">
<title>MaterialModule&#45;&gt;NewsModule</title>
<path fill="none" stroke="#000000" d="M2286.1716,-190.308C2286.1716,-210.1455 2286.1716,-239 2286.1716,-239 2286.1716,-239 1246.0527,-239 1246.0527,-239"/>
<polygon fill="#000000" stroke="#000000" points="1246.0527,-235.5001 1236.0527,-239 1246.0526,-242.5001 1246.0527,-235.5001"/>
</g>
<!-- MatButtonModule  -->
<g id="node15" class="node">
<title>MatButtonModule </title>
<polygon fill="#fb8072" stroke="#000000" points="3138.7177,-266 3015.2823,-266 3015.2823,-230 3138.7177,-230 3138.7177,-266"/>
<text text-anchor="middle" x="3077" y="-243.8" font-family="Times,serif" font-size="14.00" fill="#000000">MatButtonModule </text>
</g>
<!-- MaterialModule&#45;&gt;MatButtonModule  -->
<g id="edge14" class="edge">
<title>MaterialModule&#45;&gt;MatButtonModule </title>
<path fill="none" stroke="#000000" stroke-dasharray="5,2" d="M2357.7421,-174C2533.0413,-174 3077,-174 3077,-174 3077,-174 3077,-219.7079 3077,-219.7079"/>
<polygon fill="#000000" stroke="#000000" points="3073.5001,-219.7078 3077,-229.7079 3080.5001,-219.7079 3073.5001,-219.7078"/>
</g>
<!-- MatCardModule  -->
<g id="node16" class="node">
<title>MatCardModule </title>
<polygon fill="#fb8072" stroke="#000000" points="2997.3116,-266 2884.6884,-266 2884.6884,-230 2997.3116,-230 2997.3116,-266"/>
<text text-anchor="middle" x="2941" y="-243.8" font-family="Times,serif" font-size="14.00" fill="#000000">MatCardModule </text>
</g>
<!-- MaterialModule&#45;&gt;MatCardModule  -->
<g id="edge15" class="edge">
<title>MaterialModule&#45;&gt;MatCardModule </title>
<path fill="none" stroke="#000000" stroke-dasharray="5,2" d="M2357.4877,-178C2510.8224,-178 2941,-178 2941,-178 2941,-178 2941,-219.9733 2941,-219.9733"/>
<polygon fill="#000000" stroke="#000000" points="2937.5001,-219.9732 2941,-229.9733 2944.5001,-219.9733 2937.5001,-219.9732"/>
</g>
<!-- MatButtonToggleModule  -->
<g id="node17" class="node">
<title>MatButtonToggleModule </title>
<polygon fill="#fb8072" stroke="#000000" points="2866.8756,-266 2703.1244,-266 2703.1244,-230 2866.8756,-230 2866.8756,-266"/>
<text text-anchor="middle" x="2785" y="-243.8" font-family="Times,serif" font-size="14.00" fill="#000000">MatButtonToggleModule </text>
</g>
<!-- MaterialModule&#45;&gt;MatButtonToggleModule  -->
<g id="edge16" class="edge">
<title>MaterialModule&#45;&gt;MatButtonToggleModule </title>
<path fill="none" stroke="#000000" stroke-dasharray="5,2" d="M2357.7767,-182C2483.292,-182 2785,-182 2785,-182 2785,-182 2785,-219.9652 2785,-219.9652"/>
<polygon fill="#000000" stroke="#000000" points="2781.5001,-219.9652 2785,-229.9652 2788.5001,-219.9652 2781.5001,-219.9652"/>
</g>
<!-- MatProgressBarModule  -->
<g id="node18" class="node">
<title>MatProgressBarModule </title>
<polygon fill="#fb8072" stroke="#000000" points="2685.019,-266 2530.981,-266 2530.981,-230 2685.019,-230 2685.019,-266"/>
<text text-anchor="middle" x="2608" y="-243.8" font-family="Times,serif" font-size="14.00" fill="#000000">MatProgressBarModule </text>
</g>
<!-- MaterialModule&#45;&gt;MatProgressBarModule  -->
<g id="edge17" class="edge">
<title>MaterialModule&#45;&gt;MatProgressBarModule </title>
<path fill="none" stroke="#000000" stroke-dasharray="5,2" d="M2357.6493,-186C2444.9217,-186 2608,-186 2608,-186 2608,-186 2608,-219.7333 2608,-219.7333"/>
<polygon fill="#000000" stroke="#000000" points="2604.5001,-219.7333 2608,-229.7333 2611.5001,-219.7333 2604.5001,-219.7333"/>
</g>
<!-- RouterModule.forRoot(args) -->
<g id="node8" class="node">
<title>RouterModule.forRoot(args)</title>
<polygon fill="#8dd3c7" stroke="#000000" points="1321.8419,-190 1318.8419,-194 1297.8419,-194 1294.8419,-190 1144.1581,-190 1144.1581,-154 1321.8419,-154 1321.8419,-190"/>
<text text-anchor="middle" x="1233" y="-167.8" font-family="Times,serif" font-size="14.00" fill="#000000">RouterModule.forRoot(args)</text>
</g>
<!-- RouterModule.forRoot(args)&#45;&gt;MainModule -->
<g id="edge7" class="edge">
<title>RouterModule.forRoot(args)&#45;&gt;MainModule</title>
<path fill="none" stroke="#000000" d="M1278.691,-190.1958C1278.691,-229.3337 1278.691,-318 1278.691,-318 1278.691,-318 1526.3933,-318 1526.3933,-318"/>
<polygon fill="#000000" stroke="#000000" points="1526.3933,-321.5001 1536.3933,-318 1526.3932,-314.5001 1526.3933,-321.5001"/>
</g>
<!-- ServiceWorkerModule.register(args) -->
<g id="node9" class="node">
<title>ServiceWorkerModule.register(args)</title>
<polygon fill="#8dd3c7" stroke="#000000" points="1562.3954,-190 1559.3954,-194 1538.3954,-194 1535.3954,-190 1339.6046,-190 1339.6046,-154 1562.3954,-154 1562.3954,-190"/>
<text text-anchor="middle" x="1451" y="-167.8" font-family="Times,serif" font-size="14.00" fill="#000000">ServiceWorkerModule.register(args)</text>
</g>
<!-- ServiceWorkerModule.register(args)&#45;&gt;MainModule -->
<g id="edge8" class="edge">
<title>ServiceWorkerModule.register(args)&#45;&gt;MainModule</title>
<path fill="none" stroke="#000000" d="M1553.6151,-190.0333C1553.6151,-190.0333 1553.6151,-295.9902 1553.6151,-295.9902"/>
<polygon fill="#000000" stroke="#000000" points="1550.1152,-295.9901 1553.6151,-305.9902 1557.1152,-295.9902 1550.1152,-295.9901"/>
</g>
<!-- MatButtonModule -->
<g id="node11" class="node">
<title>MatButtonModule</title>
<polygon fill="#8dd3c7" stroke="#000000" points="3757.2176,-266 3754.2176,-270 3733.2176,-270 3730.2176,-266 3636.7824,-266 3636.7824,-230 3757.2176,-230 3757.2176,-266"/>
<text text-anchor="middle" x="3697" y="-243.8" font-family="Times,serif" font-size="14.00" fill="#000000">MatButtonModule</text>
</g>
<!-- MatButtonModule&#45;&gt;MaterialModule -->
<g id="edge10" class="edge">
<title>MatButtonModule&#45;&gt;MaterialModule</title>
<path fill="none" stroke="#000000" d="M3697,-229.7872C3697,-203.4889 3697,-158 3697,-158 3697,-158 2367.7537,-158 2367.7537,-158"/>
<polygon fill="#000000" stroke="#000000" points="2367.7537,-154.5001 2357.7537,-158 2367.7537,-161.5001 2367.7537,-154.5001"/>
</g>
<!-- MatCardModule -->
<g id="node12" class="node">
<title>MatCardModule</title>
<polygon fill="#8dd3c7" stroke="#000000" points="3618.8118,-266 3615.8118,-270 3594.8118,-270 3591.8118,-266 3509.1882,-266 3509.1882,-230 3618.8118,-230 3618.8118,-266"/>
<text text-anchor="middle" x="3564" y="-243.8" font-family="Times,serif" font-size="14.00" fill="#000000">MatCardModule</text>
</g>
<!-- MatCardModule&#45;&gt;MaterialModule -->
<g id="edge11" class="edge">
<title>MatCardModule&#45;&gt;MaterialModule</title>
<path fill="none" stroke="#000000" d="M3564,-229.7616C3564,-204.5171 3564,-162 3564,-162 3564,-162 2367.7376,-162 2367.7376,-162"/>
<polygon fill="#000000" stroke="#000000" points="2367.7376,-158.5001 2357.7376,-162 2367.7375,-165.5001 2367.7376,-158.5001"/>
</g>
<!-- MatButtonToggleModule -->
<g id="node13" class="node">
<title>MatButtonToggleModule</title>
<polygon fill="#8dd3c7" stroke="#000000" points="3490.8752,-266 3487.8752,-270 3466.8752,-270 3463.8752,-266 3331.1248,-266 3331.1248,-230 3490.8752,-230 3490.8752,-266"/>
<text text-anchor="middle" x="3411" y="-243.8" font-family="Times,serif" font-size="14.00" fill="#000000">MatButtonToggleModule</text>
</g>
<!-- MatButtonToggleModule&#45;&gt;MaterialModule -->
<g id="edge12" class="edge">
<title>MatButtonToggleModule&#45;&gt;MaterialModule</title>
<path fill="none" stroke="#000000" d="M3411,-229.8015C3411,-205.6437 3411,-166 3411,-166 3411,-166 2367.767,-166 2367.767,-166"/>
<polygon fill="#000000" stroke="#000000" points="2367.7671,-162.5001 2357.767,-166 2367.767,-169.5001 2367.7671,-162.5001"/>
</g>
<!-- MatProgressBarModule -->
<g id="node14" class="node">
<title>MatProgressBarModule</title>
<polygon fill="#8dd3c7" stroke="#000000" points="3313.0198,-266 3310.0198,-270 3289.0198,-270 3286.0198,-266 3162.9802,-266 3162.9802,-230 3313.0198,-230 3313.0198,-266"/>
<text text-anchor="middle" x="3238" y="-243.8" font-family="Times,serif" font-size="14.00" fill="#000000">MatProgressBarModule</text>
</g>
<!-- MatProgressBarModule&#45;&gt;MaterialModule -->
<g id="edge13" class="edge">
<title>MatProgressBarModule&#45;&gt;MaterialModule</title>
<path fill="none" stroke="#000000" d="M3238,-229.9092C3238,-206.8672 3238,-170 3238,-170 3238,-170 2367.5705,-170 2367.5705,-170"/>
<polygon fill="#000000" stroke="#000000" points="2367.5706,-166.5001 2357.5705,-170 2367.5705,-173.5001 2367.5706,-166.5001"/>
</g>
<!-- MainNewsComponent -->
<g id="node19" class="node">
<title>MainNewsComponent</title>
<polygon fill="#ffffb3" stroke="#000000" points="206.2548,-190 63.7452,-190 63.7452,-154 206.2548,-154 206.2548,-190"/>
<text text-anchor="middle" x="135" y="-167.8" font-family="Times,serif" font-size="14.00" fill="#000000">MainNewsComponent</text>
</g>
<!-- MainNewsComponent&#45;&gt;NewsModule -->
<g id="edge18" class="edge">
<title>MainNewsComponent&#45;&gt;NewsModule</title>
<path fill="none" stroke="#000000" d="M135,-190.4152C135,-217.0057 135,-263 135,-263 135,-263 1133.9896,-263 1133.9896,-263"/>
<polygon fill="#000000" stroke="#000000" points="1133.9896,-266.5001 1143.9896,-263 1133.9896,-259.5001 1133.9896,-266.5001"/>
</g>
<!-- NewsListComponent -->
<g id="node20" class="node">
<title>NewsListComponent</title>
<polygon fill="#ffffb3" stroke="#000000" points="696.4832,-190 561.5168,-190 561.5168,-154 696.4832,-154 696.4832,-190"/>
<text text-anchor="middle" x="629" y="-167.8" font-family="Times,serif" font-size="14.00" fill="#000000">NewsListComponent</text>
</g>
<!-- NewsListComponent&#45;&gt;NewsModule -->
<g id="edge19" class="edge">
<title>NewsListComponent&#45;&gt;NewsModule</title>
<path fill="none" stroke="#000000" d="M641.1455,-190.0109C641.1455,-212.4852 641.1455,-248 641.1455,-248 641.1455,-248 1134.149,-248 1134.149,-248"/>
<polygon fill="#000000" stroke="#000000" points="1134.149,-251.5001 1144.149,-248 1134.149,-244.5001 1134.149,-251.5001"/>
</g>
<!-- NewsListWrapperComponent -->
<g id="node21" class="node">
<title>NewsListWrapperComponent</title>
<polygon fill="#ffffb3" stroke="#000000" points="897.9482,-190 714.0518,-190 714.0518,-154 897.9482,-154 897.9482,-190"/>
<text text-anchor="middle" x="806" y="-167.8" font-family="Times,serif" font-size="14.00" fill="#000000">NewsListWrapperComponent</text>
</g>
<!-- NewsListWrapperComponent&#45;&gt;NewsModule -->
<g id="edge21" class="edge">
<title>NewsListWrapperComponent&#45;&gt;NewsModule</title>
<path fill="none" stroke="#000000" d="M834.9983,-190.308C834.9983,-210.1455 834.9983,-239 834.9983,-239 834.9983,-239 1133.9537,-239 1133.9537,-239"/>
<polygon fill="#000000" stroke="#000000" points="1133.9537,-242.5001 1143.9537,-239 1133.9536,-235.5001 1133.9537,-242.5001"/>
</g>
<!-- NewsItemComponent -->
<g id="node22" class="node">
<title>NewsItemComponent</title>
<polygon fill="#ffffb3" stroke="#000000" points="543.3613,-190 404.6387,-190 404.6387,-154 543.3613,-154 543.3613,-190"/>
<text text-anchor="middle" x="474" y="-167.8" font-family="Times,serif" font-size="14.00" fill="#000000">NewsItemComponent</text>
</g>
<!-- NewsItemComponent&#45;&gt;NewsModule -->
<g id="edge23" class="edge">
<title>NewsItemComponent&#45;&gt;NewsModule</title>
<path fill="none" stroke="#000000" d="M474,-190.1985C474,-214.3563 474,-254 474,-254 474,-254 1134.1218,-254 1134.1218,-254"/>
<polygon fill="#000000" stroke="#000000" points="1134.1218,-257.5001 1144.1218,-254 1134.1217,-250.5001 1134.1218,-257.5001"/>
</g>
<!-- ChannelSelectComponent -->
<g id="node23" class="node">
<title>ChannelSelectComponent</title>
<polygon fill="#ffffb3" stroke="#000000" points="386.1965,-190 223.8035,-190 223.8035,-154 386.1965,-154 386.1965,-190"/>
<text text-anchor="middle" x="305" y="-167.8" font-family="Times,serif" font-size="14.00" fill="#000000">ChannelSelectComponent</text>
</g>
<!-- ChannelSelectComponent&#45;&gt;NewsModule -->
<g id="edge24" class="edge">
<title>ChannelSelectComponent&#45;&gt;NewsModule</title>
<path fill="none" stroke="#000000" d="M305,-190.2337C305,-216.0094 305,-260 305,-260 305,-260 1134.2821,-260 1134.2821,-260"/>
<polygon fill="#000000" stroke="#000000" points="1134.2822,-263.5001 1144.2821,-260 1134.2821,-256.5001 1134.2822,-263.5001"/>
</g>
<!-- NewsApiService -->
<g id="node24" class="node">
<title>NewsApiService</title>
<ellipse fill="#fdb462" stroke="#000000" cx="140" cy="-104" rx="76.4208" ry="18"/>
<text text-anchor="middle" x="140" y="-99.8" font-family="Times,serif" font-size="14.00" fill="#000000">NewsApiService</text>
</g>
<!-- NewsApiService&#45;&gt;NewsListComponent -->
<g id="edge20" class="edge">
<title>NewsApiService&#45;&gt;NewsListComponent</title>
<path fill="none" stroke="#000000" d="M209.7383,-111.7124C209.7383,-123.3359 209.7383,-144 209.7383,-144 209.7383,-144 629,-144 629,-144 629,-144 629,-144.9793 629,-144.9793"/>
<polygon fill="#000000" stroke="#000000" points="625.5001,-143.793 629,-153.793 632.5001,-143.7931 625.5001,-143.793"/>
</g>
<!-- NewsApiService&#45;&gt;NewsListWrapperComponent -->
<g id="edge22" class="edge">
<title>NewsApiService&#45;&gt;NewsListWrapperComponent</title>
<path fill="none" stroke="#000000" d="M213.0994,-109.319C213.0994,-117.6911 213.0994,-133 213.0994,-133 213.0994,-133 720.0961,-133 720.0961,-133 720.0961,-133 720.0961,-143.8701 720.0961,-143.8701"/>
<polygon fill="#000000" stroke="#000000" points="716.5961,-143.8701 720.0961,-153.8701 723.5961,-143.8701 716.5961,-143.8701"/>
</g>
<!-- CommonModule -->
<g id="node25" class="node">
<title>CommonModule</title>
<polygon fill="#8dd3c7" stroke="#000000" points="837.6681,-122 834.6681,-126 813.6681,-126 810.6681,-122 726.3319,-122 726.3319,-86 837.6681,-86 837.6681,-122"/>
<text text-anchor="middle" x="782" y="-99.8" font-family="Times,serif" font-size="14.00" fill="#000000">CommonModule</text>
</g>
<!-- CommonModule&#45;&gt;NewsModule -->
<g id="edge25" class="edge">
<title>CommonModule&#45;&gt;NewsModule</title>
<path fill="none" stroke="#000000" d="M726.0394,-98C716.7544,-98 710.0775,-98 710.0775,-98 710.0775,-98 710.0775,-242 710.0775,-242 710.0775,-242 1133.983,-242 1133.983,-242"/>
<polygon fill="#000000" stroke="#000000" points="1133.983,-245.5001 1143.983,-242 1133.983,-238.5001 1133.983,-245.5001"/>
</g>
<!-- HttpClientModule -->
<g id="node26" class="node">
<title>HttpClientModule</title>
<polygon fill="#8dd3c7" stroke="#000000" points="974.1611,-122 971.1611,-126 950.1611,-126 947.1611,-122 855.8389,-122 855.8389,-86 974.1611,-86 974.1611,-122"/>
<text text-anchor="middle" x="915" y="-99.8" font-family="Times,serif" font-size="14.00" fill="#000000">HttpClientModule</text>
</g>
<!-- HttpClientModule&#45;&gt;NewsModule -->
<g id="edge26" class="edge">
<title>HttpClientModule&#45;&gt;NewsModule</title>
<path fill="none" stroke="#000000" d="M953.2942,-122.0773C953.2942,-158.2287 953.2942,-236 953.2942,-236 953.2942,-236 1134.0801,-236 1134.0801,-236"/>
<polygon fill="#000000" stroke="#000000" points="1134.0801,-239.5001 1144.0801,-236 1134.08,-232.5001 1134.0801,-239.5001"/>
</g>
<!-- Title -->
<g id="node30" class="node">
<title>Title</title>
<ellipse fill="#fdb462" stroke="#000000" cx="1027" cy="-104" rx="29.049" ry="18"/>
<text text-anchor="middle" x="1027" y="-99.8" font-family="Times,serif" font-size="14.00" fill="#000000">Title</text>
</g>
<!-- Title&#45;&gt;NewsModule -->
<g id="edge31" class="edge">
<title>Title&#45;&gt;NewsModule</title>
<path fill="none" stroke="#000000" d="M1027,-122.2089C1027,-157.7679 1027,-233 1027,-233 1027,-233 1134.1616,-233 1134.1616,-233"/>
<polygon fill="#000000" stroke="#000000" points="1134.1617,-236.5001 1144.1616,-233 1134.1616,-229.5001 1134.1617,-236.5001"/>
</g>
<!-- AngularServerModule -->
<g id="node31" class="node">
<title>AngularServerModule</title>
<polygon fill="#8dd3c7" stroke="#000000" points="913.9552,-342 910.9552,-346 889.9552,-346 886.9552,-342 772.0448,-342 772.0448,-306 913.9552,-306 913.9552,-342"/>
<text text-anchor="middle" x="843" y="-319.8" font-family="Times,serif" font-size="14.00" fill="#000000">AngularServerModule</text>
</g>
<!-- AngularServerModule&#45;&gt;AppServerModule -->
<g id="edge33" class="edge">
<title>AngularServerModule&#45;&gt;AppServerModule</title>
<path fill="none" stroke="#000000" d="M891.9415,-342.1061C891.9415,-342.1061 891.9415,-360.991 891.9415,-360.991"/>
<polygon fill="#000000" stroke="#000000" points="888.4415,-360.9909 891.9415,-370.991 895.4415,-360.991 888.4415,-360.9909"/>
</g>
<!-- ModuleMapLoaderModule -->
<g id="node32" class="node">
<title>ModuleMapLoaderModule</title>
<polygon fill="#8dd3c7" stroke="#000000" points="754.4017,-342 751.4017,-346 730.4017,-346 727.4017,-342 585.5983,-342 585.5983,-306 754.4017,-306 754.4017,-342"/>
<text text-anchor="middle" x="670" y="-319.8" font-family="Times,serif" font-size="14.00" fill="#000000">ModuleMapLoaderModule</text>
</g>
<!-- ModuleMapLoaderModule&#45;&gt;AppServerModule -->
<g id="edge34" class="edge">
<title>ModuleMapLoaderModule&#45;&gt;AppServerModule</title>
<path fill="none" stroke="#000000" d="M670,-342.0225C670,-359.3734 670,-383 670,-383 670,-383 859.6973,-383 859.6973,-383"/>
<polygon fill="#000000" stroke="#000000" points="859.6973,-386.5001 869.6973,-383 859.6972,-379.5001 859.6973,-386.5001"/>
</g>
<!-- ServerTransferStateModule -->
<g id="node33" class="node">
<title>ServerTransferStateModule</title>
<polygon fill="#8dd3c7" stroke="#000000" points="1103.9847,-342 1100.9847,-346 1079.9847,-346 1076.9847,-342 932.0153,-342 932.0153,-306 1103.9847,-306 1103.9847,-342"/>
<text text-anchor="middle" x="1018" y="-319.8" font-family="Times,serif" font-size="14.00" fill="#000000">ServerTransferStateModule</text>
</g>
<!-- ServerTransferStateModule&#45;&gt;AppServerModule -->
<g id="edge35" class="edge">
<title>ServerTransferStateModule&#45;&gt;AppServerModule</title>
<path fill="none" stroke="#000000" d="M961.1764,-342.1061C961.1764,-342.1061 961.1764,-360.991 961.1764,-360.991"/>
<polygon fill="#000000" stroke="#000000" points="957.6764,-360.9909 961.1764,-370.991 964.6764,-360.991 957.6764,-360.9909"/>
</g>
<!-- AppServerModule&#45;&gt;MainComponent  -->
<g id="edge36" class="edge">
<title>AppServerModule&#45;&gt;MainComponent </title>
<path fill="none" stroke="#000000" stroke-dasharray="1,5" d="M990.3235,-395C990.3235,-395 1358.7748,-395 1358.7748,-395"/>
<polygon fill="#000000" stroke="#000000" points="1358.7748,-398.5001 1368.7748,-395 1358.7747,-391.5001 1358.7748,-398.5001"/>
</g>
<!-- { provide: APP_BASE_HREF, useValue: &#39;http://localhost:3001&#39; } -->
<g id="node35" class="node">
<title>{ provide: APP_BASE_HREF, useValue: &#39;http://localhost:3001&#39; }</title>
<ellipse fill="#fdb462" stroke="#000000" cx="293" cy="-324" rx="268.8522" ry="18"/>
<text text-anchor="middle" x="293" y="-319.8" font-family="Times,serif" font-size="14.00" fill="#000000">{ provide: APP_BASE_HREF, useValue: &#39;http://localhost:3001&#39; }</text>
</g>
<!-- { provide: APP_BASE_HREF, useValue: &#39;http://localhost:3001&#39; }&#45;&gt;AppServerModule -->
<g id="edge37" class="edge">
<title>{ provide: APP_BASE_HREF, useValue: &#39;http://localhost:3001&#39; }&#45;&gt;AppServerModule</title>
<path fill="none" stroke="#000000" d="M293,-342.2843C293,-363.3211 293,-395 293,-395 293,-395 859.7857,-395 859.7857,-395"/>
<polygon fill="#000000" stroke="#000000" points="859.7858,-398.5001 869.7857,-395 859.7857,-391.5001 859.7858,-398.5001"/>
</g>
</g>
</svg>
